# xmcd
#
# Track frame offsets:
#	183
#	12695
#	38023
#	49503
#	60930
#	76655
#	94435
#	105128
#	120778
#	135673
#	151305
#	166318
#	184718
#	198958
#	211750
#	227485
#
# Disc length: 3220
#
# Revision: 1
# Processed by: cddbd v1.5.1PL0 Copyright (c) Steve Scherf et al.
# Submitted via: audiograbber 1.81.03
# Normalized: r0:DSETVAR1
#
DISCID=b40c9210
DTITLE=Various Artist - Das Grosse Trucker-Hitrennen [CD2]
DYEAR=1900
DGENRE=Country
TTITLE0=Tom Astor - Ich Habe Jetzt Die Nase Voll
TTITLE1=Gunter Gabriel - Ich Hab Schon Trucker Weinen Seh'n
TTITLE2=Jonny Hill - Lichter Auf Den Hügeln
TTITLE3=Nashville Music Company - 14 Räder Und Ein Lied
TTITLE4=Tom Astor - Warum Whisky Pur
TTITLE5=HOBO - Gefährliche Fracht
TTITLE6=Hermann Lammers Meyer and Emsland Hillbillies - Trucker Lady
TTITLE7=Tom Astor - Abschied
TTITLE8=Tom Astor - Egal Ob Kopf Oder Zahl
TTITLE9=Rugy and Howard - Es Ist So Schön
TTITLE10=Flophouse Stringband - Ab Morgen Fahr Ich Truck
TTITLE11=Peter Hinnen - Ein Richtiger Cowboy
TTITLE12=Bud Hennessy - 7 Tage Ohne Dich
TTITLE13=Tom Astor - Bleifuss-Joe
TTITLE14=Ecke and Co. - Unsere Country Roads
TTITLE15=Nashville Music Company - Rastlose Männer
EXTD=
EXTT0=
EXTT1=
EXTT2=
EXTT3=
EXTT4=
EXTT5=
EXTT6=
EXTT7=
EXTT8=
EXTT9=
EXTT10=
EXTT11=
EXTT12=
EXTT13=
EXTT14=
EXTT15=
PLAYORDER=
